#!OML:ASF E:\Steps\Project 1\Capture day 1\Session 2\Subject.ASF
:FULLY-SPECIFIED
:DEGREES
426
root 4.10228 17.0635 7.81095 -153.668 -0.355151 175.843
lowerback -30.345 -2.62173 -5.25857
upperback -2.98719 -2.71148 0.176494
thorax 12.7456 -1.92546 1.89541
lowerneck -3.21763 -2.81382 -2.06322
upperneck 4.94526 -3.59022 -0.359543
head 2.12977 -1.81995 0.135571
rclavicle -1.3654e-014 -2.38542e-015
rhumerus -43.0906 -28.2689 -68.0046
rradius 23.8989
rwrist 6.91437
rhand -8.05982 -52.5402
rfingers 7.12502
rthumb 17.8513 -81.7409
lclavicle -1.3654e-014 -2.38542e-015
lhumerus -35.5324 -0.457152 82.0521
lradius 23.5484
lwrist -3.84379
lhand -21.0063 -12.9281
lfingers 7.12502
lthumb 5.36828 16.9839
rfemur -23.3984 6.14424 18.6904
rtibia 9.81872
rfoot -22.0681 -2.71376
rtoes -10.3328
lfemur -24.0115 -8.54817 -24.6085
ltibia 14.91
lfoot -14.4359 1.13661
ltoes -41.2885
427
root 4.10508 17.0624 7.80273 -153.662 -0.424982 175.853
lowerback -30.1774 -2.5795 -5.20412
upperback -3.16612 -2.71212 0.13144
thorax 12.4643 -1.92816 1.82667
lowerneck -3.31914 -2.60335 -2.19932
upperneck 5.10891 -3.30288 -0.236213
head 2.20475 -1.67653 0.203202
rclavicle 1.45361e-015 -9.93923e-017
rhumerus -43.0701 -27.5138 -68.6007
rradius 24.1484
rwrist 6.12599
rhand -7.71684 -52.097
rfingers 7.12502
rthumb 18.1813 -81.2673
lclavicle 1.45361e-015 -9.93923e-017
lhumerus -35.5218 -0.235349 82.0901
lradius 23.4116
lwrist -4.02153
lhand -20.4428 -12.3067
lfingers 7.12502
lthumb 5.91235 17.5908
rfemur -23.351 5.97587 18.7825
rtibia 9.85791
rfoot -22.173 -2.63797
rtoes -10.5703
lfemur -23.9454 -8.57863 -24.571
ltibia 14.8414
lfoot -14.3989 0.969779
ltoes -40.3555
428
root 4.10805 17.061 7.79037 -153.688 -0.488904 175.895
lowerback -30.2916 -2.57265 -5.13952
upperback -3.16974 -2.72205 0.11405
thorax 12.5075 -1.93213 1.76454
lowerneck -3.36336 -2.39192 -2.15562
upperneck 5.07479 -3.0102 -0.430611
head 2.19395 -1.53443 0.143103
rclavicle 1.41758e-014 7.65321e-015
rhumerus -42.8389 -26.9801 -69.2046
rradius 24.3976
rwrist 5.54251
rhand -7.73196 -51.8908
rfingers 7.12502
rthumb 18.1667 -81.0625
lclavicle 1.41758e-014 7.65321e-015
lhumerus -35.3726 -0.0293047 82.1945
lradius 23.2009
lwrist -4.38469
lhand -20.4919 -11.9115
lfingers 7.12502
lthumb 5.86492 17.9873
rfemur -23.211 5.77322 18.9179
rtibia 9.77973
rfoot -22.1704 -2.47932
rtoes -10.7649
lfemur -23.8025 -8.57932 -24.5238
ltibia 14.7321
lfoot -14.3661 0.945264
ltoes -40.4176
429
root 4.11305 17.0603 7.78104 -153.732 -0.554272 175.915
lowerback -30.6421 -2.61789 -5.14249
upperback -2.96141 -2.72719 0.103675
thorax 12.8971 -1.93097 1.73536
lowerneck -3.2793 -2.22045 -1.88033
upperneck 4.48276 -2.79153 -0.806253
head 1.9715 -1.42831 -0.00962614
rclavicle 1.92573e-015 -3.08116e-015
rhumerus -42.2581 -26.7306 -69.9007
rradius 24.6303
rwrist 5.17578
rhand -8.07649 -51.9466
rfingers 7.12502
rthumb 17.8352 -81.1487
lclavicle 1.92573e-015 -3.08116e-015
lhumerus -34.9358 0.0529497 82.3475
lradius 23.0076
lwrist -4.58757
lhand -20.6691 -12.1843
lfingers 7.12502
lthumb 5.69387 17.7192
rfemur -23.065 5.6278 19.007
rtibia 9.68408
rfoot -22.1975 -2.32431
rtoes -10.7074
lfemur -23.6833 -8.65269 -24.4677
ltibia 14.6702
lfoot -14.3348 1.01964
ltoes -40.9527
430
root 4.11863 17.0605 7.77375 -153.802 -0.622204 175.867
lowerback -30.8149 -2.67849 -5.20373
upperback -2.81279 -2.7491 0.103459
thorax 13.1457 -1.9397 1.75017
lowerneck -3.2727 -2.17206 -1.67359
upperneck 4.104 -2.72891 -1.14389
head 1.83815 -1.3996 -0.145043
rclavicle 1.56294e-014 2.60408e-014
rhumerus -41.7303 -26.3759 -70.4952
rradius 24.8286
rwrist 4.84935
rhand -7.89437 -52.2549
rfingers 7.12502
rthumb 18.0105 -81.441
lclavicle 1.56294e-014 2.60408e-014
lhumerus -34.4833 0.183193 82.5282
lradius 22.7981
lwrist -4.56266
lhand -20.4716 -12.5898
lfingers 7.12502
lthumb 5.88451 17.3085
rfemur -22.8937 5.68064 18.9614
rtibia 9.55416
rfoot -22.2308 -2.39212
rtoes -10.4586
lfemur -23.564 -8.74757 -24.4814
ltibia 14.6478
lfoot -14.3006 1.0626
ltoes -41.2198
